<svg version="1.0" xmlns="http://www.w3.org/2000/svg"
viewBox="0 0 300 300"
 >
<g transform="translate(0.000000,300.000000) scale(0.100000,-0.100000)"
fill="#ffffff" stroke="none">
<path d="M2290 2373 l0 -66 -140 6 -140 6 0 -70 0 -69 -69 0 -68 0 5 -70 5
-70 -202 0 -201 0 0 -65 0 -65 -60 0 -60 0 0 -137 0 -138 60 3 60 4 0 -193 c0
-141 3 -190 11 -182 13 13 16 163 4 206 l-7 27 61 0 61 0 0 -131 0 -130 -122
2 -123 1 -3 -63 c-1 -50 0 -60 9 -46 10 17 16 37 18 60 1 8 63 37 81 37 6 0
10 -25 10 -60 l0 -60 -180 0 -180 0 0 -52 c0 -56 14 -96 24 -68 3 8 7 31 8 50
l3 35 85 6 c47 3 93 9 102 13 15 7 17 0 20 -56 l3 -63 58 -3 57 -3 0 -64 0
-65 130 0 130 0 0 135 0 135 -65 0 -65 0 0 65 0 65 136 0 136 0 -3 -66 -4 -65
68 -2 67 -2 0 68 0 67 70 0 70 0 0 70 0 70 -70 0 -70 0 0 195 0 195 75 0 75 0
0 70 0 70 73 0 72 0 -3 136 -4 136 66 -4 66 -4 0 133 0 133 -70 0 -70 0 0 -67z
m84 21 c13 -5 16 -23 16 -90 l0 -84 -34 0 c-19 0 -45 -9 -60 -21 -25 -19 -26
-25 -26 -109 0 -108 -10 -140 -45 -140 -28 0 -27 -5 -26 125 2 113 -9 131 -89
142 -46 7 -55 12 -55 28 0 18 9 20 112 25 127 6 146 16 158 78 4 20 12 40 18
44 15 9 12 9 31 2z m-214 -349 l0 -135 -75 0 -75 0 0 -70 0 -70 -135 0 -135 0
0 -65 0 -65 63 0 c59 1 61 1 37 15 -14 8 -35 14 -48 15 -20 0 -23 4 -20 32 3
29 8 34 47 45 54 16 62 8 60 -57 0 -25 0 -104 0 -177 l1 -132 63 -3 62 -3 3
-67 3 -68 -66 0 -65 0 0 70 0 70 -70 0 -70 0 0 63 0 63 -65 -4 -65 -4 0 71 0
71 -65 0 -66 0 3 133 3 132 63 3 62 3 0 -71 0 -70 -52 0 c-38 0 -49 -3 -38
-10 8 -5 27 -10 43 -10 25 0 27 -3 27 -39 0 -22 5 -43 10 -46 6 -4 10 15 10
49 l0 56 65 0 65 0 0 70 0 70 70 0 70 0 0 65 0 65 65 0 65 0 0 70 0 70 75 0
75 0 0 -135z m-192 71 c5 -24 -10 -38 -31 -30 -17 6 -23 35 -10 48 12 12 38 1
41 -18z m-133 -141 c0 -16 -10 -21 -50 -28 -59 -9 -85 -35 -85 -82 0 -34 -22
-61 -40 -50 -5 3 -10 24 -10 45 0 49 -44 90 -96 90 -26 0 -34 4 -34 18 0 10 3
22 7 26 4 3 75 5 157 4 143 -3 151 -4 151 -23z m283 -127 c3 -23 -2 -29 -24
-34 -20 -5 -31 -2 -41 11 -18 26 -16 34 10 45 35 14 52 7 55 -22z m-675 -20
c3 -18 5 -58 4 -88 -2 -48 -5 -55 -22 -55 -18 0 -20 8 -23 74 -2 41 -1 80 2
88 10 25 34 13 39 -19z m525 -250 l-3 -163 -25 0 -25 0 -3 150 c-1 82 0 155 2
162 3 7 17 13 31 13 l25 0 -2 -162z m-390 -10 c3 -25 0 -28 -27 -28 -28 0 -31
3 -31 31 0 27 3 30 28 27 21 -2 28 -9 30 -30z m113 -109 c12 -6 18 -17 15 -24
-16 -44 45 -105 91 -91 26 8 45 -8 41 -35 -3 -23 -5 -24 -98 -24 l-95 0 -3 79
c-4 108 3 120 49 95z m404 -149 c0 -29 -32 -41 -41 -16 -9 24 4 48 23 44 12
-2 18 -12 18 -28z m-527 -132 c3 -24 0 -28 -23 -28 -27 0 -41 20 -31 46 10 27
51 13 54 -18z m400 -2 c-2 -13 -12 -22 -25 -24 -18 -3 -23 1 -23 21 0 30 6 36
31 30 14 -4 19 -13 17 -27z m-358 -136 l0 -71 -62 3 -63 3 -3 68 -3 67 66 0
65 0 0 -70z m-170 5 c0 -18 -5 -25 -19 -25 -24 0 -33 13 -25 34 10 27 44 20
44 -9z m255 -70 l0 -90 -83 -3 c-70 -2 -83 0 -89 14 -7 20 22 45 42 38 16 -6
55 13 72 35 7 9 13 32 13 52 0 40 7 51 30 47 12 -3 15 -20 15 -93z"/>
<path d="M2010 1978 c1 -58 2 -61 15 -44 8 11 15 30 15 43 0 25 26 43 62 43
13 0 30 5 38 10 10 7 -7 10 -57 10 l-73 0 0 -62z"/>
<path d="M1878 1892 c-6 -23 7 -111 14 -92 3 8 9 28 14 45 7 22 17 31 43 36
63 13 60 29 -6 29 -50 0 -62 -3 -65 -18z"/>
<path d="M1645 1631 c-3 -6 1 -12 9 -12 9 -1 21 -3 26 -4 6 -1 16 -3 24 -4 9
-1 14 -12 14 -29 -1 -16 4 -37 11 -48 9 -15 11 -8 9 41 l-3 60 -42 3 c-22 2
-44 -2 -48 -7z"/>
<path d="M610 2247 l0 -73 65 4 65 4 0 -71 0 -71 190 0 190 0 0 -65 0 -65 -60
0 -60 0 0 -70 0 -70 -65 0 -65 0 0 -65 0 -65 -65 0 -65 0 0 -71 0 -71 -65 4
-65 3 0 -67 0 -68 65 0 65 0 0 65 0 65 65 0 65 0 0 70 0 70 65 0 65 0 0 65 0
65 60 0 60 0 0 -135 0 -135 -60 0 -60 0 0 -60 0 -60 -65 0 -65 0 0 -70 0 -70
-65 0 -65 0 0 -65 0 -65 -65 0 -66 0 3 -67 3 -68 63 -3 62 -3 0 71 0 70 65 0
65 0 0 -70 0 -70 65 0 65 0 0 -65 0 -65 60 0 60 0 0 -64 0 -65 -55 -6 c-31 -4
-144 -5 -253 -2 l-197 6 -3 130 -3 131 -62 0 -62 0 3 -133 3 -133 60 4 59 4 0
-71 0 -71 255 0 255 0 0 71 0 72 65 -5 65 -6 0 69 0 69 55 0 55 0 0 65 0 65
-60 0 -60 0 0 -65 0 -65 -60 0 -60 0 0 65 0 65 -60 0 -60 0 0 70 0 70 -65 0
-65 0 0 65 0 65 65 0 65 0 0 65 0 65 60 0 60 0 0 65 0 65 65 0 65 0 0 135 0
135 -65 0 -65 0 0 71 0 71 65 -4 65 -3 0 71 0 72 -65 -6 -65 -5 0 73 0 73 65
-5 65 -6 0 74 0 74 -65 0 -65 0 0 -70 0 -70 -190 0 -190 0 0 70 0 70 -65 0
-65 0 0 -73z m90 3 c0 -24 -26 -38 -42 -22 -16 16 -2 42 22 42 13 0 20 -7 20
-20z m505 -5 c0 -11 -8 -21 -17 -23 -14 -3 -18 3 -18 23 0 20 4 26 18 23 9 -2
17 -12 17 -23z m-127 -129 c2 -10 -2 -22 -10 -27 -15 -10 -248 -12 -272 -3
-19 7 -21 40 -3 48 6 2 73 4 147 3 123 -2 135 -4 138 -21z m129 -132 c8 -21
-13 -42 -28 -27 -13 13 -5 43 11 43 6 0 13 -7 17 -16z m-127 -144 c0 -13 -7
-20 -20 -20 -13 0 -20 7 -20 20 0 13 7 20 20 20 13 0 20 -7 20 -20z m-122
-133 c4 -20 -25 -34 -40 -19 -15 15 -1 44 19 40 10 -2 19 -11 21 -21z m250
-69 c2 -69 0 -87 -12 -91 -9 -4 -18 -2 -21 3 -11 17 -12 155 -2 168 21 28 32
3 35 -80z m-383 -73 c0 -30 -39 -27 -43 3 -3 20 0 23 20 20 15 -2 23 -10 23
-23z m-127 -128 c2 -11 -3 -17 -17 -17 -23 0 -35 15 -26 31 10 15 39 6 43 -14z
m379 7 c8 -20 -8 -36 -26 -25 -15 10 -8 41 9 41 6 0 13 -7 17 -16z m-121 -149
c-3 -9 -14 -15 -23 -13 -22 4 -30 38 -11 49 18 11 43 -15 34 -36z m-132 -111
c7 -19 -1 -34 -19 -34 -18 0 -28 17 -21 35 7 20 32 19 40 -1z m-126 -142 c3
-18 -1 -22 -22 -22 -19 0 -26 5 -26 18 0 39 43 43 48 4z m260 1 c3 -19 -1 -23
-22 -23 -21 0 -26 5 -26 26 0 21 4 25 23 22 14 -2 23 -11 25 -25z m357 -134
c0 -15 -7 -25 -17 -27 -13 -3 -18 3 -18 21 0 13 3 27 7 31 13 12 28 -1 28 -25z
m-744 -21 c2 -56 -2 -132 -6 -137 -2 -2 -11 -1 -20 2 -12 5 -15 23 -15 85 0
80 3 92 27 92 8 0 13 -14 14 -42z m517 14 c3 -18 -1 -22 -22 -22 -19 0 -26 5
-26 18 0 39 43 43 48 4z m117 -122 c0 -29 -32 -41 -41 -16 -9 24 4 48 23 44
12 -2 18 -12 18 -28z m-127 -142 l3 -28 -211 0 c-179 0 -212 2 -216 15 -4 8
-1 22 6 30 11 13 45 15 214 13 l201 -3 3 -27z"/>
<path d="M610 1840 l0 -70 65 0 65 0 0 70 0 70 -65 0 -65 0 0 -70z m90 -1 c0
-14 -7 -19 -25 -19 -26 0 -33 18 -14 37 16 16 39 5 39 -18z"/>
<path d="M740 784 c0 -34 4 -53 10 -49 6 3 10 19 10 35 0 41 23 50 129 50 49
0 93 5 96 10 4 6 -38 10 -119 10 l-126 0 0 -56z"/>
<path d="M2010 776 l0 -63 -57 -6 c-32 -3 -178 -4 -325 -3 l-268 3 0 -69 0
-68 325 0 324 0 3 68 3 67 68 -1 67 -1 0 69 0 68 -70 0 -70 0 0 -64z m88 -4
c3 -16 -2 -22 -17 -22 -24 0 -35 15 -27 36 9 23 40 13 44 -14z m-133 -137 c0
-19 -8 -20 -274 -23 -164 -1 -279 2 -284 7 -5 5 -7 17 -4 25 6 14 39 16 284
14 270 -3 278 -4 278 -23z"/>
</g>
</svg>
